<?xml version="1.0" standalone="no"?><!DOCTYPE svg PUBLIC "-//W3C//DTD SVG 1.1//EN" "http://www.w3.org/Graphics/SVG/1.1/DTD/svg11.dtd"><svg t="1613893616092" class="icon" viewBox="0 0 1024 1024" version="1.1" xmlns="http://www.w3.org/2000/svg" p-id="3781" xmlns:xlink="http://www.w3.org/1999/xlink" width="250" height="250"><defs><style type="text/css"></style></defs><path d="M0 0m116.5312 0l790.9376 0q116.5312 0 116.5312 116.5312l0 790.9376q0 116.5312-116.5312 116.5312l-790.9376 0q-116.5312 0-116.5312-116.5312l0-790.9376q0-116.5312 116.5312-116.5312Z" fill="#FCE586" p-id="3782"></path><path d="M683.4176 868.1472a7.7824 7.7824 0 0 0-1.4336-1.8432 108.9536 108.9536 0 0 1-23.552-20.48H650.0352l-10.24 5.3248a15.7696 15.7696 0 0 1-20.48-6.5536l-5.5296-10.4448a15.7696 15.7696 0 0 1 6.5536-20.48l10.24-5.3248v-2.8672a108.7488 108.7488 0 0 1-2.8672-29.4912 7.7824 7.7824 0 0 0-5.3248-8.8064l-11.0592-3.4816a15.7696 15.7696 0 0 1-10.4448-20.48l3.4816-11.264a15.7696 15.7696 0 0 1 20.48-10.4448L634.88 716.8a7.7824 7.7824 0 0 0 9.216-4.3008 108.9536 108.9536 0 0 1 18.8416-22.7328V682.5984l-5.3248-10.24a15.7696 15.7696 0 0 1 6.5536-20.48l10.4448-5.5296a15.7696 15.7696 0 0 1 20.48 6.5536l1.6384 5.5296a45.4656 45.4656 0 0 0 1.8432 5.3248c1.6384 3.8912 6.3488 4.3008 10.6496 3.2768a108.9536 108.9536 0 0 1 30.5152-2.8672h1.6384a7.7824 7.7824 0 0 0 6.3488-5.3248l3.4816-11.0592a14.5408 14.5408 0 0 1 0-1.8432 310.4768 310.4768 0 0 0-163.84-119.808 199.4752 199.4752 0 1 0-185.7536 1.2288A316.8256 316.8256 0 0 0 184.32 826.7776v23.7568a19.0464 19.0464 0 0 0 16.5888 16.9984h482.0992z" fill="#009CFF" p-id="3783"></path><path d="M738.103818 769.738923m-23.171667 12.258412a26.2144 26.2144 0 1 0 46.343333-24.516824 26.2144 26.2144 0 1 0-46.343333 24.516824Z" fill="#009CFF" p-id="3784"></path><path d="M663.3472 827.392l7.5776-4.096H675.84a80.6912 80.6912 0 0 0 20.48 16.384l1.024 1.4336a5.7344 5.7344 0 0 1 0 4.5056l-2.4576 8.192a11.6736 11.6736 0 0 0 7.7824 14.5408l8.3968 2.6624a11.6736 11.6736 0 0 0 14.5408-7.7824l2.4576-8.192h1.8432a81.92 81.92 0 0 0 22.7328-2.048 5.7344 5.7344 0 0 1 6.144 2.8672l4.096 7.5776a11.6736 11.6736 0 0 0 15.7696 4.9152l7.7824-4.096a11.6736 11.6736 0 0 0 4.9152-15.7696l-4.096-7.5776a5.7344 5.7344 0 0 1 0-6.7584 80.6912 80.6912 0 0 0 14.5408-17.6128h5.5296l8.192 2.4576a11.6736 11.6736 0 0 0 14.5408-7.7824l2.6624-8.3968a11.6736 11.6736 0 0 0-7.7824-14.5408l-8.192-2.4576a5.7344 5.7344 0 0 1-4.096-4.5056 80.6912 80.6912 0 0 0-2.048-22.528 5.7344 5.7344 0 0 1 0-1.024v-2.2528l7.5776-4.096a11.6736 11.6736 0 0 0 4.9152-15.7696l-4.096-7.7824a11.6736 11.6736 0 0 0-15.7696-4.9152l-7.5776 4.096a5.7344 5.7344 0 0 1-6.7584 0 81.92 81.92 0 0 0-17.6128-14.5408v-17.8176l2.4576-8.192a11.6736 11.6736 0 0 0-7.7824-14.5408l-8.3968-2.6624a11.6736 11.6736 0 0 0-14.5408 7.7824l-2.4576 8.192a5.7344 5.7344 0 0 1-4.7104 4.096h-1.2288a80.6912 80.6912 0 0 0-22.528 2.048 5.7344 5.7344 0 0 1-7.7824-2.4576 13.5168 13.5168 0 0 1 0-4.096l-1.6384-4.096a11.6736 11.6736 0 0 0-15.7696-4.9152l-7.7824 4.096a11.6736 11.6736 0 0 0-4.9152 15.7696l4.096 7.5776v4.096a80.6912 80.6912 0 0 0-14.1312 16.7936 5.7344 5.7344 0 0 1-6.9632 3.2768l-8.192-2.4576a11.6736 11.6736 0 0 0-14.5408 7.7824l-2.6624 8.3968a11.6736 11.6736 0 0 0 7.7824 14.5408l8.192 2.4576a5.7344 5.7344 0 0 1 3.8912 6.5536 80.6912 80.6912 0 0 0 2.048 21.9136v2.6624l-7.5776 4.096a11.6736 11.6736 0 0 0-4.9152 15.7696l4.096 7.7824a11.6736 11.6736 0 0 0 18.0224 10.4448z m57.1392-91.136a37.888 37.888 0 1 1-15.7696 51.2 37.888 37.888 0 0 1 15.7696-51.2z" fill="#009CFF" p-id="3785"></path></svg>