<?xml version="1.0" standalone="no"?><!DOCTYPE svg PUBLIC "-//W3C//DTD SVG 1.1//EN" "http://www.w3.org/Graphics/SVG/1.1/DTD/svg11.dtd"><svg t="1620400988376" class="icon" viewBox="0 0 1024 1024" version="1.1" xmlns="http://www.w3.org/2000/svg" p-id="11530" xmlns:xlink="http://www.w3.org/1999/xlink" width="200" height="200"><defs><style type="text/css"></style></defs><path d="M822.314667 612.266667a34.048 34.048 0 0 1 29.738666 17.152l82.773334 144.853333c6.144 10.666667 6.101333 23.893333-0.128 34.645333l-84.053334 145.621334a34.773333 34.773333 0 0 1-29.866666 17.408l-166.912 0.725333a34.048 34.048 0 0 1-29.738667-17.152l-82.816-144.896a34.773333 34.773333 0 0 1 0.128-34.602667l84.053333-145.621333a34.773333 34.773333 0 0 1 29.909334-17.450667l166.912-0.725333zM512 601.472c15.402667 0 32.981333 1.28 52.736 3.797333l-97.109333 161.706667a48.341333 48.341333 0 0 0-4.266667 41.258667l2.474667 5.546666L509.013333 896H170.666667v-149.76c0-39.936 23.722667-74.965333 57.984-85.504v-0.085333c128.128-39.466667 222.592-59.136 283.349333-59.136z m270.08 114.688l-87.381333 0.426667-43.946667 76.16 43.306667 75.861333 87.381333-0.426667 43.946667-76.16-43.306667-75.861333zM512 128a206.805333 206.805333 0 0 1 206.762667 206.848A206.805333 206.805333 0 1 1 512 128z" fill="#2D26EF" p-id="11531"></path></svg>