<?xml version="1.0" standalone="no"?><!DOCTYPE svg PUBLIC "-//W3C//DTD SVG 1.1//EN" "http://www.w3.org/Graphics/SVG/1.1/DTD/svg11.dtd"><svg t="1620401137610" class="icon" viewBox="0 0 1024 1024" version="1.1" xmlns="http://www.w3.org/2000/svg" p-id="11793" xmlns:xlink="http://www.w3.org/1999/xlink" width="200" height="200"><defs><style type="text/css"></style></defs><path d="M657.58 970.07H111.8a34.47 34.47 0 0 1-34.47-34.47V109.34a34.47 34.47 0 0 1 34.47-34.47h795.3a34.47 34.47 0 0 1 34.47 34.47v204a34.47 34.47 0 0 1-68.94 0V143.81H146.27v757.32h511.31a34.47 34.47 0 0 1 0 68.94z" fill="#0C5AE5" p-id="11794"></path><path d="M750.51 331.22H239.94a31.75 31.75 0 1 1 0-63.49h510.57a31.75 31.75 0 1 1 0 63.49zM496.57 523H238.72a30.53 30.53 0 1 1 0-61.05h257.85a30.53 30.53 0 0 1 0 61.05zM368.89 715.1h-130.7a31.11 31.11 0 1 1 0-62.22h130.7a31.11 31.11 0 0 1 0 62.22z" fill="#85A5FF" p-id="11795"></path><path d="M554.27 857.83a34.49 34.49 0 0 1-34.4-36.76L528 699.19a34.49 34.49 0 0 1 10-22.09l260-260a34.51 34.51 0 0 1 24.4-10.1 34.52 34.52 0 0 1 24.38 10.1l113.73 113.77a34.46 34.46 0 0 1 0 48.74l-260 260a34.45 34.45 0 0 1-22.08 10l-121.88 8.14c-0.75 0.05-1.55 0.08-2.28 0.08z m121.88-42.61z m-80.22-98.53l-4.65 69.65 69.66-4.65 226.45-226.45-65-65z" fill="#0C5AE5" p-id="11796"></path></svg>