<?xml version="1.0" standalone="no"?><!DOCTYPE svg PUBLIC "-//W3C//DTD SVG 1.1//EN" "http://www.w3.org/Graphics/SVG/1.1/DTD/svg11.dtd"><svg t="1613893138103" class="icon" viewBox="0 0 1129 1024" version="1.1" xmlns="http://www.w3.org/2000/svg" p-id="8020" xmlns:xlink="http://www.w3.org/1999/xlink" width="250" height="250"><defs><style type="text/css"></style></defs><path d="M932.546207 747.52H215.216552a17.655172 17.655172 0 1 1 0-35.310345h717.329655a17.655172 17.655172 0 0 1 0 35.310345zM353.103448 647.768276a17.655172 17.655172 0 0 1-14.653793-7.768276 17.655172 17.655172 0 0 1 4.590345-24.54069c25.953103-17.655172 36.193103-66.030345 37.958621-82.97931a122.350345 122.350345 0 0 0-36.193104-92.689655 22.422069 22.422069 0 0 1-3.707586-4.413793 173.373793 173.373793 0 0 1-22.422069-70.62069c-5.473103-97.809655 49.081379-121.997241 51.376552-123.586207a17.655172 17.655172 0 0 1 23.128276 9.357242 17.655172 17.655172 0 0 1-9.004138 23.128275c-1.942069 0.882759-34.251034 17.655172-30.366897 88.275862a143.36 143.36 0 0 0 16.595862 52.965518 160.132414 160.132414 0 0 1 45.726897 119.348965c0 4.413793-8.651034 79.271724-52.965517 109.815173a17.655172 17.655172 0 0 1-10.063449 3.707586zM559.668966 647.768276a17.655172 17.655172 0 0 1-14.477242-7.768276 17.655172 17.655172 0 0 1 4.413793-24.54069c25.776552-17.655172 36.193103-66.030345 37.958621-82.97931a121.997241 121.997241 0 0 0-35.310345-92.689655 17.655172 17.655172 0 0 1-3.707586-4.413793 178.670345 178.670345 0 0 1-22.598621-70.62069c-5.296552-97.809655 49.257931-121.997241 51.553104-123.586207a17.655172 17.655172 0 0 1 13.947586 32.485517c-1.942069 0.882759-34.074483 17.655172-30.190345 88.275862a143.36 143.36 0 0 0 16.595862 52.965518 160.838621 160.838621 0 0 1 45.726897 119.348965c0 4.413793-8.651034 79.271724-52.965518 109.815173a17.655172 17.655172 0 0 1-10.946206 3.707586zM764.468966 647.768276a17.655172 17.655172 0 0 1-10.063449-32.308966c25.776552-17.655172 36.193103-66.030345 37.958621-82.97931a122.350345 122.350345 0 0 0-36.193104-92.689655 17.655172 17.655172 0 0 1-3.531034-4.413793 175.315862 175.315862 0 0 1-22.598621-70.62069c-5.473103-97.809655 49.081379-121.997241 51.553104-123.586207a17.655172 17.655172 0 0 1 13.947586 32.485517c-1.942069 0.882759-34.251034 17.655172-30.190345 88.275862a139.475862 139.475862 0 0 0 16.595862 52.965518 160.308966 160.308966 0 0 1 45.550345 119.348965c0 4.413793-8.474483 79.271724-52.965517 109.815173a17.655172 17.655172 0 0 1-10.063448 3.707586z" fill="#3164AF" p-id="8021"></path></svg>