<?xml version="1.0" standalone="no"?><!DOCTYPE svg PUBLIC "-//W3C//DTD SVG 1.1//EN" "http://www.w3.org/Graphics/SVG/1.1/DTD/svg11.dtd"><svg t="1613893019035" class="icon" viewBox="0 0 1024 1024" version="1.1" xmlns="http://www.w3.org/2000/svg" p-id="7500" xmlns:xlink="http://www.w3.org/1999/xlink" width="250" height="250"><defs><style type="text/css"></style></defs><path d="M839.68 737.28H348.16c-22.528 0-40.96 18.432-40.96 40.96s18.432 40.96 40.96 40.96h491.52v40.96c0 26.624-14.336 40.96-40.96 40.96H307.2c-71.68 0-122.88-53.248-122.88-122.88V204.8c0-69.632 51.2-122.88 122.88-122.88h491.52c26.624 0 40.96 14.336 40.96 40.96v614.4z" fill="#AAD300" p-id="7501"></path><path d="M403.456 475.136c-32.768-8.192-55.296-38.912-55.296-73.728 0-43.008 32.768-77.824 73.728-77.824h6.144c14.336-45.056 55.296-77.824 104.448-77.824s90.112 32.768 104.448 77.824h6.144c40.96 0 73.728 34.816 73.728 77.824 0 36.864-22.528 65.536-55.296 73.728v79.872c0 10.24-8.192 18.432-18.432 18.432H421.888c-10.24 0-18.432-8.192-18.432-18.432v-79.872z" fill="#E6F4BD" p-id="7502"></path></svg>